<svg width="100" height="100" viewBox="0 0 100 100" fill="none" xmlns="http://www.w3.org/2000/svg">
<path d="M84.7782 22.132C78.2591 19.2607 71.3357 17.168 64.1091 16C63.1995 17.5087 62.1887 19.5526 61.4812 21.1587C53.7948 20.088 46.1639 20.088 38.5836 21.1587C37.8761 19.5526 36.8148 17.5087 35.9556 16C28.6786 17.168 21.7553 19.2607 15.2817 22.132C2.19302 40.7226 -1.34447 58.8752 0.42427 76.7844C9.11636 82.8677 17.5053 86.5666 25.7477 89C27.7691 86.3719 29.5884 83.5491 31.155 80.5806C28.1734 79.5099 25.3434 78.1958 22.6145 76.6384C23.322 76.152 24.0295 75.6167 24.6865 75.0813C41.161 82.3327 59.0051 82.3327 75.2774 75.0813C75.9849 75.6167 76.6419 76.152 77.3494 76.6384C74.6204 78.1958 71.7906 79.5099 68.8088 80.5806C70.3755 83.5491 72.1949 86.3719 74.2161 89C82.4534 86.5666 90.8929 82.8677 99.5395 76.7844C101.712 56.0527 96.098 38.0461 84.7782 22.132ZM33.429 65.7372C28.4765 65.7372 24.4337 61.406 24.4337 56.1013C24.4337 50.7967 28.3754 46.4652 33.429 46.4652C38.432 46.4652 42.5252 50.7967 42.4241 56.1013C42.4241 61.406 38.432 65.7372 33.429 65.7372ZM66.636 65.7372C61.6833 65.7372 57.6354 61.406 57.6354 56.1013C57.6354 50.7967 61.5822 46.4652 66.636 46.4652C71.639 46.4652 75.7322 50.7967 75.6311 56.1013C75.6311 61.406 71.6895 65.7372 66.636 65.7372Z" fill="#404EED"/>
</svg>
