<svg width="150" height="30" viewBox="0 0 150 30" fill="none" xmlns="http://www.w3.org/2000/svg">
<g clip-path="url(#clip0_3_11)">
<path d="M31.4534 2.51999C29.0348 1.34 26.4662 0.479997 23.785 0C23.4475 0.620004 23.0725 1.45999 22.81 2.12C19.9583 1.67999 17.1272 1.67999 14.3148 2.12C14.0523 1.45999 13.6586 0.620004 13.3398 0C10.64 0.479997 8.07139 1.34 5.66964 2.51999C0.81363 10.16 -0.49881 17.6199 0.157408 24.9799C3.38224 27.4799 6.49462 29 9.5526 30C10.3026 28.9199 10.9775 27.7599 11.5588 26.54C10.4526 26.0999 9.40261 25.5599 8.39016 24.9199C8.65265 24.72 8.91515 24.5 9.15889 24.28C15.2711 27.26 21.8914 27.26 27.9285 24.28C28.191 24.5 28.4348 24.72 28.6973 24.9199C27.6848 25.5599 26.6349 26.0999 25.5287 26.54C26.1099 27.7599 26.7849 28.9199 27.5348 30C30.5909 29 33.722 27.4799 36.93 24.9799C37.7361 16.46 35.6532 9.06004 31.4534 2.51999ZM12.4025 20.4399C10.565 20.4399 9.0651 18.66 9.0651 16.48C9.0651 14.3 10.5275 12.5199 12.4025 12.5199C14.2586 12.5199 15.7772 14.3 15.7397 16.48C15.7397 18.66 14.2586 20.4399 12.4025 20.4399ZM24.7225 20.4399C22.885 20.4399 21.3832 18.66 21.3832 16.48C21.3832 14.3 22.8475 12.5199 24.7225 12.5199C26.5787 12.5199 28.0973 14.3 28.0598 16.48C28.0598 18.66 26.5974 20.4399 24.7225 20.4399Z" fill="#404EED"/>
<path d="M49.9227 6.27881H57.8931C59.8054 6.27881 61.4366 6.59876 62.7678 7.23879C64.0989 7.87882 65.0927 8.75886 65.7489 9.89879C66.4051 11.0388 66.7426 12.3388 66.7426 13.8188C66.7426 15.2588 66.4052 16.5588 65.7114 17.7388C65.0177 18.8988 63.9678 19.8387 62.5616 20.5188C61.1554 21.1988 59.4117 21.5388 57.3306 21.5388H49.9227V6.27881ZM57.2368 17.6588C58.5304 17.6588 59.5242 17.3187 60.2179 16.6188C60.9117 15.9388 61.2679 14.9788 61.2679 13.7988C61.2679 12.6988 60.9492 11.8187 60.3304 11.1588C59.7117 10.4988 58.7743 10.1588 57.518 10.1588H55.0244V17.6588H57.2368Z" fill="#404EED"/>
<path d="M79.1567 21.5201C78.0504 21.2201 77.0568 20.7801 76.1755 20.18V16.56C76.8505 17.12 77.7317 17.56 78.8567 17.9201C79.9815 18.2801 81.069 18.4601 82.119 18.4601C82.6064 18.4601 82.9814 18.4001 83.2252 18.2601C83.4689 18.1201 83.6002 17.9601 83.6002 17.76C83.6002 17.54 83.5252 17.36 83.3939 17.22C83.2627 17.08 83.0002 16.96 82.6064 16.84L80.1503 16.2601C78.7442 15.9201 77.7504 15.4201 77.1504 14.82C76.5505 14.22 76.2693 13.4001 76.2693 12.4001C76.2693 11.56 76.5318 10.8201 77.0379 10.2001C77.5629 9.58005 78.2942 9.10002 79.2504 8.76001C80.2065 8.42012 81.3128 8.24011 82.6064 8.24011C83.7502 8.24011 84.8 8.36012 85.7563 8.64013C86.7124 8.90001 87.4999 9.24003 88.1187 9.64005V13.0601C87.4812 12.6601 86.7313 12.34 85.9063 12.1C85.0625 11.86 84.2002 11.74 83.3189 11.74C82.0439 11.74 81.4065 11.98 81.4065 12.4401C81.4065 12.6601 81.5003 12.8201 81.7065 12.9401C81.9128 13.0601 82.2689 13.1601 82.7939 13.2801L84.8375 13.6801C86.1688 13.92 87.1624 14.36 87.8187 14.98C88.4749 15.6001 88.7937 16.5 88.7937 17.72C88.7937 19.0401 88.2499 20.1 87.1624 20.8601C86.075 21.6401 84.5375 22.02 82.5502 22.02C81.3878 21.98 80.2628 21.82 79.1567 21.5201Z" fill="#404EED"/>
<path d="M93.8575 21.0608C92.695 20.4408 91.7951 19.6208 91.2139 18.5808C90.6139 17.5407 90.3326 16.3608 90.3326 15.0408C90.3326 13.7408 90.6326 12.5608 91.2514 11.5409C91.8701 10.5008 92.77 9.70077 93.9513 9.10087C95.1324 8.52084 96.5574 8.22083 98.2073 8.22083C100.251 8.22083 101.938 8.68085 103.288 9.60076V13.5808C102.82 13.2408 102.257 12.9408 101.62 12.7408C100.982 12.5208 100.307 12.4208 99.5948 12.4208C98.3198 12.4208 97.3449 12.6608 96.6136 13.1608C95.9011 13.6608 95.5449 14.3009 95.5449 15.1008C95.5449 15.8808 95.8824 16.5208 96.5949 17.0209C97.2885 17.5207 98.301 17.7808 99.6135 17.7808C100.288 17.7808 100.963 17.6808 101.62 17.4607C102.276 17.2407 102.857 17.0009 103.326 16.6808V20.5408C101.826 21.5008 100.082 21.9808 98.1135 21.9808C96.4449 21.9808 95.0387 21.6608 93.8575 21.0608Z" fill="#404EED"/>
<path d="M108.634 21.0608C107.453 20.4408 106.553 19.6208 105.934 18.5608C105.315 17.5007 104.997 16.3208 104.997 15.0008C104.997 13.7008 105.315 12.5208 105.934 11.5009C106.553 10.4808 107.453 9.68077 108.615 9.10087C109.778 8.52084 111.184 8.22083 112.798 8.22083C114.411 8.22083 115.817 8.50084 116.979 9.10087C118.142 9.68077 119.042 10.4808 119.66 11.5009C120.279 12.5208 120.579 13.6808 120.579 15.0008C120.579 16.3008 120.279 17.5007 119.66 18.5608C119.042 19.6208 118.16 20.4608 116.979 21.0608C115.798 21.6608 114.411 21.9808 112.798 21.9808C111.202 21.9808 109.815 21.6608 108.634 21.0608ZM114.842 17.2007C115.329 16.6808 115.592 15.9608 115.592 15.1008C115.592 14.2208 115.348 13.5408 114.842 13.0208C114.336 12.5008 113.661 12.2408 112.817 12.2408C111.936 12.2408 111.259 12.5008 110.753 13.0208C110.265 13.5408 110.003 14.2208 110.003 15.1008C110.003 15.9808 110.246 16.6808 110.753 17.2007C111.259 17.7408 111.936 18.0008 112.817 18.0008C113.661 17.9808 114.354 17.7208 114.842 17.2007Z" fill="#404EED"/>
<path d="M133.123 9.0199V13.72C132.598 13.36 131.923 13.18 131.098 13.18C130.01 13.18 129.166 13.54 128.585 14.2399C128.003 14.9399 127.703 16.04 127.703 17.5199V21.52H122.698V8.79989H127.61V12.8599C127.873 11.3799 128.323 10.28 128.923 9.57992C129.523 8.87989 130.31 8.5 131.266 8.5C131.978 8.5 132.598 8.68001 133.123 9.0199Z" fill="#404EED"/>
<path d="M150 5.84009V21.54H144.994V18.68C144.563 19.7601 143.925 20.5801 143.063 21.14C142.199 21.7 141.129 21.98 139.854 21.98C138.729 21.98 137.736 21.68 136.892 21.1C136.049 20.5201 135.393 19.7001 134.943 18.68C134.493 17.6401 134.268 16.48 134.268 15.2001C134.249 13.86 134.493 12.6601 134.999 11.6001C135.486 10.5401 136.199 9.7201 137.099 9.12007C137.999 8.52005 139.029 8.22003 140.192 8.22003C142.574 8.22003 144.169 9.32008 144.994 11.5401V5.84009H150ZM144.244 17.1001C144.75 16.58 145.013 15.88 145.013 15.0401C145.013 14.2201 144.769 13.56 144.263 13.0601C143.757 12.5601 143.082 12.3001 142.236 12.3001C141.392 12.3001 140.717 12.5601 140.211 13.0801C139.704 13.6 139.461 14.2601 139.461 15.1001C139.461 15.94 139.704 16.6 140.211 17.1201C140.717 17.6401 141.374 17.9001 142.217 17.9001C143.063 17.9001 143.737 17.6401 144.244 17.1001Z" fill="#404EED"/>
<path d="M71.357 9.56065C72.7949 9.56065 73.9631 8.44124 73.9631 7.06066C73.9631 5.67987 72.7949 4.56067 71.357 4.56067C69.917 4.56067 68.7509 5.67987 68.7509 7.06066C68.7509 8.44124 69.917 9.56065 71.357 9.56065Z" fill="#404EED"/>
<path d="M73.9631 11.2793C72.3694 12.0192 70.382 12.0392 68.7509 11.2793V21.5393H73.9631V11.2793Z" fill="#404EED"/>
</g>
<defs>
<clipPath id="clip0_3_11">
<rect width="150" height="30" fill="white"/>
</clipPath>
</defs>
</svg>
