<svg width="100" height="100" viewBox="0 0 100 100" fill="none" xmlns="http://www.w3.org/2000/svg">
<path d="M16.5353 70.2512C16.8898 70.8728 17.404 71.3867 18.0239 71.739L48.4758 89.4466L48.4768 89.4457C49.0903 89.8086 49.789 90 50.5005 90C51.2121 90 51.9107 89.8086 52.5242 89.4457L82.9771 71.738C83.5957 71.3845 84.1094 70.871 84.465 70.2506C84.8206 69.6302 85.0053 68.9255 84.9999 68.2091V32.7938L84.9989 32.7928C85.0043 32.0762 84.8195 31.3712 84.4637 30.7507C84.108 30.1301 83.5941 29.6165 82.9752 29.263L52.5223 11.5553C51.9093 11.1924 51.2111 11 50.5 11C49.7889 11 49.0908 11.1914 48.4777 11.5543L18.0258 29.263C17.4066 29.6162 16.8925 30.1298 16.5365 30.7504C16.1805 31.371 15.9957 32.0761 16.0011 32.7928L16.0002 32.7938V68.2091C15.9933 68.9257 16.1788 69.631 16.5353 70.2512Z" fill="#009639"/>
<path d="M40.7959 64.0283C40.7959 65.0779 40.3852 66.0845 39.6542 66.8267C38.9232 67.5688 37.9317 67.9858 36.8979 67.9858C35.8641 67.9858 34.8727 67.5688 34.1417 66.8267C33.4107 66.0845 33 65.0779 33 64.0283L33.001 64.0292L33.0047 36.8623C33.0394 36.3121 33.1823 35.7746 33.4251 35.2814C33.6678 34.7883 34.0055 34.3495 34.4181 33.991C34.8306 33.6326 35.3098 33.3617 35.8272 33.1945C36.3446 33.0272 36.8898 32.9669 37.4306 33.0172C38.4355 33.0041 39.4312 33.2131 40.3486 33.6296C41.2661 34.046 42.0834 34.6601 42.7439 35.4292L43.9218 36.8604L60.206 56.6463V36.9728H60.2041C60.2041 36.4531 60.305 35.9385 60.5009 35.4584C60.6967 34.9782 60.9839 34.5419 61.3458 34.1744C61.7078 33.8069 62.1375 33.5154 62.6104 33.3166C63.0833 33.1177 63.5902 33.0153 64.1021 33.0153C64.614 33.0153 65.1208 33.1177 65.5937 33.3166C66.0667 33.5154 66.4964 33.8069 66.8583 34.1744C67.2203 34.5419 67.5074 34.9782 67.7033 35.4584C67.8992 35.9385 68 36.4531 68 36.9728L67.9953 64.1377C67.9605 64.6879 67.8175 65.2254 67.5748 65.7185C67.332 66.2116 66.9943 66.6504 66.5818 67.0088C66.1692 67.3673 65.6901 67.6381 65.1727 67.8054C64.6553 67.9727 64.1102 68.0331 63.5694 67.9829C62.5645 67.9962 61.5687 67.7874 60.6512 67.3709C59.7336 66.9544 58.9164 66.3402 58.2561 65.5709L40.794 44.3539V64.0292L40.7959 64.0283Z" fill="white"/>
</svg>
