<svg width="455" height="429" viewBox="0 0 455 429" fill="none" xmlns="http://www.w3.org/2000/svg">
<path fill-rule="evenodd" clip-rule="evenodd" d="M267.882 0.0113525C264.596 0.0113525 261.545 0.678026 258.729 1.56687C264.713 5.34455 267.999 10.3445 269.642 16.011C269.759 16.7887 269.994 17.3443 270.111 18.122C270.229 18.7887 270.346 19.4553 270.346 20.122C270.815 29.8995 267.647 31.1217 265.417 36.8994C262.014 44.3437 262.953 52.3435 267.06 58.7878C267.412 59.5655 267.882 60.4544 268.468 61.2321C264.009 33.1217 288.769 28.8996 293.345 20.122C293.697 12.4555 287.009 7.34451 281.728 3.78904C276.682 0.900225 272.106 0.0113525 267.882 0.0113525ZM305.197 6.34454C304.728 8.90003 305.08 8.23338 304.963 9.56669C304.845 10.4555 304.845 11.5667 304.728 12.4555C304.494 13.3444 304.259 14.2332 303.907 15.1221C303.672 16.011 303.32 16.8999 302.968 17.7887C302.498 18.6776 302.147 19.4553 301.677 20.3442C301.325 20.7888 301.09 21.2331 300.738 21.6775C300.504 22.0108 300.269 22.3442 300.034 22.6775C299.448 23.4553 298.861 24.233 298.274 24.8997C297.57 25.5663 296.983 26.3441 296.162 26.8996V27.0109C295.458 27.5664 294.754 28.2331 293.932 28.7886C291.468 30.5663 288.652 31.8996 286.07 33.5663C285.249 34.1218 284.427 34.5663 283.723 35.2329C282.902 35.7884 282.198 36.344 281.494 37.0106C280.672 37.6773 280.086 38.3439 279.382 39.1217C278.795 39.7884 278.091 40.5661 277.622 41.3439C277.035 42.1216 276.448 42.8994 275.979 43.6771C275.509 44.566 275.157 45.3438 274.688 46.2326C274.336 47.1215 273.984 47.8993 273.749 48.7881C273.397 49.7881 273.162 50.677 272.928 51.5659C272.81 52.0105 272.81 52.5658 272.693 53.0103C272.576 53.4549 272.576 53.8991 272.459 54.3436C272.459 55.2324 272.341 56.2324 272.341 57.1213C272.341 57.7879 272.341 58.4546 272.459 59.1212C272.459 60.0101 272.576 60.8989 272.811 61.8989C272.928 62.7878 273.163 63.6767 273.398 64.5656C273.75 65.4544 273.984 66.3433 274.336 67.2321C274.571 67.7877 274.923 68.3432 275.158 68.7876L248.168 58.899C243.592 57.6768 239.133 56.5657 234.556 55.5658C232.092 55.0102 229.628 54.4547 227.164 53.8991C220.123 52.5658 212.965 51.5659 205.807 50.8992C205.573 50.8992 205.455 50.788 205.22 50.788C198.18 50.1213 191.256 49.788 184.216 49.788C179.052 49.788 173.889 50.01 168.843 50.3435C161.685 50.7881 154.527 51.6768 147.369 52.7879C145.609 53.0099 143.849 53.3435 142.089 53.6768C138.451 54.3434 134.931 55.1212 131.528 55.899C129.768 56.3436 128.008 56.7878 126.247 57.2322C124.487 57.8989 122.844 58.6767 121.202 59.3433C119.911 59.8988 118.62 60.4544 117.329 61.01C117.095 61.1212 116.86 61.1212 116.742 61.232C115.569 61.7875 114.513 62.2319 113.457 62.7875C113.105 62.8988 112.87 63.0096 112.635 63.1209C111.345 63.6764 110.054 64.343 108.998 64.8986C108.176 65.2319 107.355 65.6763 106.651 66.0097C106.299 66.2317 105.829 66.4543 105.595 66.5652C104.539 67.1207 103.483 67.6763 102.544 68.2318C101.488 68.7874 100.549 69.3429 99.7275 69.8984C98.9061 70.454 98.0846 70.8984 97.3806 71.4539C97.263 71.5652 97.1461 71.5652 97.0285 71.676C96.3245 72.1206 95.5031 72.676 94.799 73.2315C94.799 73.2315 94.6815 73.3428 94.5645 73.4536C93.9778 73.8982 93.391 74.3424 92.8043 74.7869C92.5698 74.8981 92.3348 75.1202 92.1002 75.2315C91.5135 75.6761 90.9268 76.2315 90.3401 76.6759C90.2226 76.898 89.9881 77.0092 89.8706 77.1205C89.1665 77.7872 88.4624 78.3427 87.7583 79.0094C87.6408 79.0094 87.6408 79.1206 87.5238 79.2314C86.8198 79.7869 86.1157 80.4536 85.4116 81.1202C85.2941 81.2315 85.2941 81.3423 85.1771 81.3423C84.5904 81.8978 84.0037 82.4534 83.4169 83.12C83.1824 83.342 82.8302 83.5646 82.5955 83.7866C82.0088 84.4533 81.3048 85.12 80.6007 85.7866C80.4831 86.0087 80.2487 86.1199 80.1311 86.3421C79.1924 87.2311 78.3709 88.1199 77.4322 89.0088C77.3147 89.12 77.1977 89.2308 77.0802 89.3421C75.2026 91.2309 73.2078 93.1198 71.0956 94.7864C68.9834 96.5641 66.7538 98.2308 64.5243 99.6752C62.1774 101.231 59.9479 102.564 57.4836 103.897C55.1367 105.119 52.6725 106.231 50.0909 107.231C47.6266 108.231 45.0451 109.119 42.4635 109.897C37.535 110.897 32.4892 112.786 28.1474 113.119C27.2087 113.119 26.1526 113.341 25.2138 113.453C24.1577 113.675 23.219 113.897 22.2802 114.119C21.3415 114.453 20.4027 114.786 19.464 115.119C18.5252 115.453 17.5865 115.897 16.6477 116.341C15.8263 116.897 14.8875 117.341 14.0661 117.897C13.2447 118.452 12.4233 119.119 11.7192 119.786C10.8978 120.341 10.0764 121.119 9.37231 121.786C8.66824 122.564 7.96417 123.23 7.37746 124.008C6.79075 124.897 6.08668 125.675 5.61728 126.563C5.03057 127.341 4.44386 128.23 3.97446 129.119C3.50489 130.119 3.03571 131.008 2.68367 132.008C2.33164 132.897 1.9796 133.897 1.62757 134.897C1.39306 135.785 1.158 136.674 1.04086 137.563C1.04086 137.675 0.923334 137.785 0.923334 137.896C0.688826 138.896 0.688826 140.23 0.571296 140.896C0.453771 141.674 0.336792 142.341 0.336792 143.119C0.336792 143.563 0.336792 144.119 0.454317 144.563C0.571843 145.341 0.688821 146.007 0.923883 146.674C1.15839 147.341 1.39345 148.007 1.74526 148.674V148.785C2.0973 149.452 2.5667 150.119 3.03605 150.785C3.50561 151.452 3.97485 152.119 4.56155 152.785C5.14826 153.341 5.85234 154.007 6.55641 154.563C7.26048 155.23 7.96456 155.785 8.78593 156.341C11.6022 158.674 12.3063 159.452 15.944 161.229C16.5307 161.563 17.1174 161.785 17.8215 162.118C17.9391 162.118 18.056 162.23 18.1736 162.23C18.1736 162.452 18.1736 162.563 18.2911 162.785C18.4086 163.674 18.6431 164.563 18.8778 165.452C19.1123 166.452 19.4646 167.341 19.8166 168.118C20.1686 168.785 20.4033 169.452 20.7554 170.118C20.8729 170.34 20.9899 170.563 21.1074 170.674C21.577 171.563 22.0461 172.341 22.5155 173.118C23.1022 173.896 23.689 174.674 24.2757 175.452C24.8624 176.118 25.5664 176.896 26.2705 177.563C26.9746 178.229 27.6787 178.785 28.5001 179.451C28.5001 179.451 28.6176 179.563 28.7346 179.563C29.4387 180.118 30.1428 180.674 30.8468 181.118C31.6682 181.674 32.4896 182.118 33.4284 182.563C34.2498 183.007 35.1886 183.452 36.1273 183.785C36.8314 184.118 37.6528 184.341 38.4742 184.563C38.5917 184.674 38.7087 184.674 38.9438 184.785C39.4133 184.896 39.9998 185.007 40.4692 185.118C40.1172 191.118 39.9997 196.784 40.9388 198.784C41.9948 201.007 47.158 194.229 52.3212 186.451C51.6171 194.118 51.1477 203.118 52.3212 205.784C53.612 208.562 60.6527 199.896 66.7546 190.34C149.952 172.118 225.874 226.562 233.853 303.449C232.328 291.449 216.721 284.782 209.563 286.449C206.043 294.671 200.058 305.226 190.436 311.782C191.257 304.449 190.905 296.893 189.262 289.56C186.681 299.782 181.635 309.337 174.712 317.559C163.564 318.337 152.416 313.226 146.549 305.56C146.079 305.226 145.962 304.56 145.61 304.115C145.258 303.337 144.906 302.56 144.671 301.782C144.319 301.004 144.085 300.226 143.967 299.449C143.85 298.671 143.85 297.893 143.85 297.004C143.85 296.449 143.85 295.893 143.85 295.338C143.967 294.56 144.202 293.782 144.436 293.004C144.671 292.227 144.906 291.449 145.258 290.671C145.727 289.893 146.079 289.116 146.666 288.338C148.661 283.005 148.661 278.671 145.023 276.116C144.319 275.671 143.615 275.338 142.794 275.005C142.324 274.894 141.738 274.672 141.268 274.56C140.916 274.449 140.681 274.338 140.329 274.227C139.508 274.005 138.687 273.782 137.865 273.671C137.044 273.449 136.222 273.338 135.401 273.338C134.58 273.227 133.641 273.116 132.819 273.116C132.233 273.116 131.646 273.227 131.059 273.227C130.12 273.227 129.299 273.339 128.478 273.561C127.656 273.672 126.835 273.783 126.013 274.005C125.192 274.227 124.371 274.45 123.549 274.783C122.728 275.116 122.024 275.45 121.202 275.783C120.498 276.116 119.794 276.561 118.973 276.894C91.6314 293.782 107.942 333.337 126.6 344.781C119.559 346.003 112.401 347.448 110.407 348.892C110.289 349.004 110.172 349.114 110.172 349.114C115.218 352.003 120.498 354.448 126.014 356.559C133.524 358.892 141.503 361.003 145.023 361.892V362.003C154.763 363.892 164.62 364.559 174.594 364.003C226.578 360.559 269.174 323.115 276.919 273.783C277.153 274.783 277.388 275.672 277.623 276.672C277.975 278.672 278.444 280.783 278.679 282.894V283.005C278.913 284.005 279.031 285.005 279.148 285.894V286.339C279.266 287.339 279.383 288.339 279.383 289.227C279.5 290.45 279.617 291.672 279.617 292.894V294.672C279.617 295.227 279.735 295.894 279.735 296.45C279.735 297.116 279.617 297.783 279.617 298.449V300.005C279.617 300.783 279.5 301.449 279.5 302.227C279.5 302.672 279.5 303.116 279.382 303.672C279.382 304.449 279.265 305.227 279.265 306.116C279.147 306.449 279.147 306.783 279.147 307.116C279.03 308.005 278.913 308.783 278.795 309.671C278.795 310.005 278.795 310.338 278.678 310.671C278.56 311.783 278.326 312.783 278.208 313.894V314.005V314.116C277.974 315.116 277.739 316.227 277.504 317.227V317.561C277.27 318.561 277.034 319.561 276.8 320.56C276.8 320.672 276.682 320.894 276.682 321.005C276.448 322.005 276.213 323.005 275.861 324.005V324.338C275.509 325.449 275.157 326.449 274.922 327.449C274.805 327.561 274.805 327.671 274.805 327.671C274.453 328.783 274.101 329.894 273.749 331.005C273.279 332.116 272.927 333.116 272.458 334.227C271.988 335.338 271.637 336.449 271.167 337.449C270.698 338.56 270.228 339.56 269.759 340.671H269.641C269.172 341.671 268.703 342.782 268.116 343.782C267.998 344.116 267.881 344.338 267.764 344.56C267.646 344.671 267.646 344.782 267.529 344.893C259.902 359.448 248.637 372.226 234.555 382.226C233.617 382.781 232.678 383.448 231.739 384.115C231.505 384.337 231.152 384.448 230.918 384.67C230.096 385.226 229.275 385.781 228.336 386.337L228.688 387.003H228.806C230.449 386.781 232.091 386.559 233.734 386.337H233.852C236.903 385.892 239.954 385.337 243.005 384.781C243.826 384.67 244.765 384.448 245.586 384.226C246.173 384.114 246.642 384.004 247.229 383.892C248.05 383.781 248.872 383.559 249.693 383.448C250.397 383.226 251.101 383.114 251.805 382.892C263.54 380.226 274.922 376.559 285.835 372.226C267.178 396.336 242.183 415.78 212.964 428.558C226.459 427.669 239.954 425.558 252.979 422.002C300.269 408.78 340.049 378.67 363.869 338.115C359.058 363.782 348.263 388.225 332.304 409.558C343.686 402.447 354.13 394.225 363.635 384.892C389.92 358.893 407.17 325.894 413.037 290.45C417.027 308.005 418.2 326.116 416.44 344.004C501.163 232.118 423.481 116.121 390.976 85.5659C390.858 85.3438 390.742 85.2325 390.742 85.0103C390.624 85.1216 390.624 85.1216 390.624 85.2324C390.624 85.1211 390.624 85.1211 390.506 85.0103C390.506 86.3436 390.389 87.6769 390.272 89.0102C389.92 91.5657 389.568 94.0101 389.098 96.4545C388.512 98.8989 387.808 101.343 387.104 103.788C386.282 106.121 385.343 108.565 384.287 110.899C383.231 113.121 382.058 115.454 380.767 117.676C379.476 119.787 378.068 122.009 376.543 124.009C375.017 126.12 373.374 128.12 371.731 130.009C369.971 132.009 368.094 133.787 366.216 135.565C365.043 136.565 363.987 137.454 362.813 138.342C361.875 139.12 361.053 139.787 360.114 140.565C358.002 142.12 355.89 143.564 353.543 144.898C351.314 146.231 348.967 147.564 346.62 148.675C344.156 149.787 341.691 150.787 339.227 151.787C336.763 152.675 334.181 153.453 331.6 154.12C329.018 154.786 326.319 155.342 323.738 155.786C321.039 156.231 318.34 156.453 315.758 156.675C313.881 156.787 312.003 156.897 310.126 156.897C307.427 156.897 304.728 156.675 302.146 156.453C299.447 156.231 296.748 155.897 294.167 155.342C291.468 154.897 288.886 154.23 286.305 153.453H286.187C288.769 153.231 291.35 153.008 293.932 152.564C296.631 152.119 299.212 151.564 301.794 150.897C304.376 150.231 306.957 149.453 309.421 148.564C312.003 147.675 314.467 146.564 316.814 145.453C319.278 144.342 321.508 143.12 323.855 141.786C326.084 140.342 328.314 138.898 330.426 137.342C332.538 135.787 334.533 134.12 336.411 132.342C338.405 130.675 340.166 128.787 341.926 126.898C343.686 124.898 345.329 122.898 346.854 120.898C347.089 120.565 347.324 120.12 347.558 119.787C348.732 118.009 349.905 116.231 350.961 114.454C352.252 112.232 353.426 110.009 354.482 107.676C355.538 105.343 356.477 103.009 357.298 100.565C358.119 98.2318 358.706 95.7875 359.293 93.3431C359.762 90.7876 360.232 88.3432 360.466 85.8988C360.701 83.3433 360.936 80.7878 360.936 78.3435C360.936 76.5657 360.818 74.788 360.701 73.0103C360.467 70.4548 360.115 68.0104 359.763 65.566C359.293 63.0105 358.706 60.5661 358.002 58.1217C357.181 55.7884 356.36 53.344 355.421 51.0108C354.482 48.6775 353.309 46.3442 352.135 44.122C350.844 41.8999 349.554 39.6777 348.145 37.5666C346.62 35.4556 345.094 33.4556 343.452 31.4557C341.692 29.5668 339.931 27.678 338.054 25.7891C337.115 24.9003 336.059 23.9003 335.003 23.0115C329.722 19.1226 324.207 15.456 318.692 12.1228C317.871 11.6782 317.167 11.345 316.345 11.0117C312.473 8.67844 308.835 7.45559 305.197 6.34454Z" fill="#E0234E"/>
</svg>
